Coordinates
version=1
nRows=4
nColumns=63
inDegrees=yes

Units are S.I. units (second, meters, Newtons, ...)
If the header above contains a line with 'inDegrees', this indicates whether rotational values are in degrees (yes) or radians (no).

endheader
time	pelvis_tilt	pelvis_list	pelvis_rotation	pelvis_tx	pelvis_ty	pelvis_tz	hip_flexion_r	hip_adduction_r	hip_rotation_r	knee_angle_r	knee_angle_r_beta	ankle_angle_r	subtalar_angle_r	mtp_angle_r	hip_flexion_l	hip_adduction_l	hip_rotation_l	knee_angle_l	knee_angle_l_beta	ankle_angle_l	subtalar_angle_l	mtp_angle_l	L5_S1_Flex_Ext	L5_S1_Lat_Bending	L5_S1_axial_rotation	L4_L5_Flex_Ext	L4_L5_Lat_Bending	L4_L5_axial_rotation	L3_L4_Flex_Ext	L3_L4_Lat_Bending	L3_L4_axial_rotation	L2_L3_Flex_Ext	L2_L3_Lat_Bending	L2_L3_axial_rotation	L1_L2_Flex_Ext	L1_L2_Lat_Bending	L1_L2_axial_rotation	L1_T12_Flex_Ext	L1_T12_Lat_Bending	L1_T12_axial_rotation	Abs_r3	Abs_r2	Abs_r1	Abs_t1	Abs_t2	neck_flexion	neck_bending	neck_rotation	arm_flex_r	arm_add_r	arm_rot_r	elbow_flex_r	pro_sup_r	wrist_flex_r	wrist_dev_r	arm_flex_l	arm_add_l	arm_rot_l	elbow_flex_l	pro_sup_l	wrist_flex_l	wrist_dev_l
      0.00000000	     -0.32915041	     -4.63935045	     91.40719314	      0.18928465	      0.47505914	      1.00669825	      6.47368758	      1.00417860	     -7.95127544	     16.58144892	      0.28940088	     44.75203836	     16.48287754	      0.00000000	      2.97329011	      2.08208845	     -3.98217030	     10.25505871	      0.17898454	     42.27063109	     -2.29360927	      0.00000000	      0.18569230	      0.30097340	      0.72399633	      0.34484917	      0.40029462	      0.76924611	      0.30507388	      0.73178672	      0.76924611	      0.21222773	      0.73178672	      0.63349679	      0.17243387	      0.61374495	      0.58824702	      0.10610458	      0.46620779	      0.54299725	      1.32638155	      3.40467125	      4.02665042	      0.00000000	      0.00000000	     21.70304914	     -2.37463828	     -1.47847208	     21.89424230	     -5.96169355	     66.98398745	     39.26175642	     65.04420621	     20.20013841	     23.25765998	     26.23075287	     -2.34846807	     76.90895871	     40.18621578	     49.55184914	      7.02937642	     23.05618037
      0.01666667	     -0.58447088	     -4.40136954	     90.82997472	      0.18954011	      0.47520070	      1.00458913	      5.58671085	      0.84779211	     -7.72624354	     15.69276245	      0.27389037	     44.68639503	     15.94963748	      0.00000000	      2.61817958	      2.44963047	     -3.58852757	     10.60790640	      0.18514289	     42.08654702	     -3.19301295	      0.00000000	      0.17898958	      0.27392354	      0.82577785	      0.33240155	      0.36431831	      0.87738896	      0.29406198	      0.66601770	      0.87738896	      0.20456719	      0.66601770	      0.72255562	      0.16620972	      0.55858489	      0.67094450	      0.10227465	      0.42430757	      0.61933339	      1.27850467	      3.09867790	      4.59272865	      0.00000000	      0.00000000	     21.29128836	     -2.44067961	     -1.90760603	     20.26597041	     -6.48353189	     62.79647260	     40.82905909	     66.81921088	     20.02423929	     24.05664143	     26.58901906	     -2.75058767	     79.66753688	     41.10880583	     57.50965299	      9.62238462	     19.03804501
      0.03333333	     -0.79816079	     -4.17314835	     90.50474819	      0.18954764	      0.47529781	      1.00296353	      4.86113002	      0.71355948	     -7.49010229	     15.01689985	      0.26209435	     44.60382051	     15.39197053	      0.00000000	      2.30630497	      2.71802590	     -3.72350783	     10.91282538	      0.19046473	     41.96436179	     -3.29704493	      0.00000000	      0.16675376	      0.25066550	      0.88646896	      0.30967841	      0.33338512	      0.94187327	      0.27395975	      0.60946810	      0.94187327	      0.19058287	      0.60946810	      0.77566034	      0.15484754	      0.51115709	      0.72025603	      0.09528310	      0.38828086	      0.66485172	      1.19110544	      2.83557828	      4.93027442	      0.00000000	      0.00000000	     21.03249981	     -1.93132378	     -1.75757161	     19.10193666	     -6.82842787	     60.15181177	     41.85975024	     68.28210045	     20.16491363	     24.02134610	     26.70669995	     -2.99674911	     81.07537348	     42.09970895	     63.42519814	     10.04985949	     17.49854164
      0.05000000	     -0.87340556	     -4.12643989	     89.93832207	      0.18976444	      0.47511632	      1.00178987	      4.45685196	      0.75126007	     -6.64401060	     14.42535127	      0.25176988	     44.39407714	     14.74543224	      0.00000000	      2.23189795	      2.78655364	     -4.62709178	     11.25163527	      0.19637808	     41.95682076	     -2.91870296	      0.00000000	      0.17217058	      0.25000082	      0.99497044	      0.31973798	      0.33250108	      1.05715609	      0.28285904	      0.60785198	      1.05715609	      0.19677375	      0.60785198	      0.87059913	      0.15987760	      0.50980166	      0.80841348	      0.09837827	      0.38725126	      0.74622783	      1.22979722	      2.82805922	      5.53372708	      0.00000000	      0.00000000	     21.12248175	     -2.30749672	     -2.04606996	     18.06189591	     -6.98299636	     57.36645647	     42.70901604	     72.22340589	     21.66158967	     24.79311833	     26.12865766	     -2.95025336	     79.65452673	     42.36680497	     71.54464779	     12.50964213	     15.93747798
